<?xml version="1.0" standalone="no"?>
<!DOCTYPE svg PUBLIC "-//W3C//DTD SVG 20010904//EN"
 "http://www.w3.org/TR/2001/REC-SVG-20010904/DTD/svg10.dtd">
<svg version="1.0" xmlns="http://www.w3.org/2000/svg"
 width="1024.000000pt" height="1024.000000pt" viewBox="0 0 1024.000000 1024.000000"
 preserveAspectRatio="xMidYMid meet">

<g transform="translate(0.000000,1024.000000) scale(0.100000,-0.100000)"
fill="#000000" stroke="none">
<path d="M5430 10184 c1 -346 280 -712 638 -835 134 -46 317 -45 441 1 219 84
390 312 395 527 l1 56 -129 44 c-70 24 -130 42 -132 40 -2 -2 1 -27 8 -56 22
-96 -24 -236 -99 -302 -91 -79 -210 -106 -331 -74 -256 67 -504 333 -530 568
l-7 62 -55 7 c-30 3 -88 10 -127 14 l-73 7 0 -59z"/>
<path d="M4150 10154 c-183 -38 -230 -49 -230 -54 0 -3 87 -92 194 -199 l193
-193 92 91 c50 50 91 95 91 99 0 9 -264 273 -271 271 -2 -1 -33 -8 -69 -15z"/>
<path d="M3305 9914 c-22 -8 -54 -21 -72 -29 -17 -8 -33 -15 -36 -15 -3 0 -35
-14 -72 -30 l-68 -30 66 -50 c195 -147 322 -391 289 -556 -49 -242 -293 -342
-542 -221 -195 95 -347 275 -414 490 -5 15 -9 16 -28 6 -20 -11 -197 -126
-207 -135 -8 -8 46 -134 91 -211 55 -94 184 -235 272 -298 125 -88 242 -138
372 -156 204 -29 382 29 525 171 90 89 140 173 168 287 49 192 3 409 -130 604
-41 62 -156 190 -168 188 -3 0 -24 -7 -46 -15z"/>
<path d="M4845 9821 c-58 -59 -82 -97 -161 -250 -52 -100 -94 -185 -94 -189 0
-4 42 -31 92 -60 107 -62 89 -70 174 80 30 54 60 98 67 98 7 0 210 -198 453
-441 l441 -441 91 91 c51 50 92 93 92 96 0 5 -1046 1052 -1072 1073 -14 11
-25 3 -83 -57z"/>
<path d="M7307 9668 c-48 -97 -67 -178 -67 -282 0 -123 23 -214 85 -341 151
-306 471 -524 771 -525 139 0 276 48 387 135 64 51 159 171 155 197 -2 9 -43
52 -93 96 l-90 80 -9 -26 c-34 -101 -135 -191 -238 -213 -189 -41 -430 79
-588 291 -113 154 -153 300 -115 427 8 27 26 67 40 88 14 20 25 39 23 40 -9 8
-209 105 -216 105 -5 0 -25 -33 -45 -72z"/>
<path d="M4236 9213 c-59 -59 -81 -94 -162 -248 -51 -99 -94 -185 -94 -191 0
-11 163 -114 180 -114 5 0 38 52 75 115 37 63 70 115 74 115 3 0 204 -198 446
-440 242 -242 443 -440 447 -440 3 0 48 41 98 91 l92 92 -544 544 -544 544
-68 -68z"/>
<path d="M6648 9027 c-37 -40 -78 -92 -91 -117 -75 -142 -157 -309 -157 -318
0 -15 169 -115 184 -109 6 3 38 55 71 116 33 60 64 110 70 111 5 0 209 -199
452 -442 l443 -443 90 90 c49 49 90 93 90 98 0 10 -1070 1087 -1079 1086 -3 0
-36 -32 -73 -72z"/>
<path d="M1705 8938 c-49 -45 -115 -106 -145 -136 -45 -45 -51 -53 -30 -48
126 30 136 30 226 8 124 -30 218 -87 329 -197 145 -143 210 -275 209 -426 0
-74 -4 -93 -29 -143 -34 -67 -97 -129 -163 -158 -37 -18 -66 -22 -142 -22 -85
0 -103 4 -172 33 -210 89 -393 288 -444 483 -16 62 -15 171 1 228 7 23 5 22
-27 -10 -43 -44 -191 -220 -213 -253 -20 -31 -8 -85 41 -194 142 -314 484
-553 792 -553 84 0 182 25 272 68 106 51 223 169 274 274 138 288 55 626 -220
888 -116 110 -230 179 -368 224 -83 27 -92 23 -191 -66z"/>
<path d="M3617 8596 c-56 -59 -67 -78 -220 -371 l-36 -69 90 -53 c49 -29 94
-53 98 -53 10 0 131 204 131 220 0 5 6 10 13 10 6 0 210 -198 452 -440 242
-242 443 -440 447 -440 11 0 178 171 178 182 0 16 -1067 1078 -1081 1077 -8
-1 -40 -29 -72 -63z"/>
<path d="M8786 8579 c-151 -114 -232 -264 -243 -449 -7 -122 8 -215 52 -325
134 -332 481 -585 801 -585 122 0 316 63 348 112 8 13 -1 38 -38 112 -26 53
-51 98 -55 101 -5 2 -34 -10 -66 -27 -101 -54 -233 -50 -366 13 -192 91 -367
294 -415 480 -39 152 13 301 134 377 26 17 60 34 75 37 15 4 27 11 25 15 -7
19 -164 190 -174 190 -6 0 -41 -23 -78 -51z"/>
<path d="M6002 8260 c-215 -46 -396 -208 -468 -420 -29 -85 -26 -311 5 -400
106 -298 333 -524 624 -622 95 -32 306 -32 399 0 225 78 395 288 416 514 14
150 -6 262 -75 408 -48 103 -90 160 -202 270 -172 170 -340 248 -546 255 -60
2 -130 0 -153 -5z m224 -270 c32 -11 75 -28 94 -37 104 -48 262 -195 329 -307
138 -230 94 -470 -104 -566 -67 -33 -190 -40 -267 -15 -187 62 -360 209 -452
385 -90 170 -86 319 12 447 76 101 246 141 388 93z"/>
<path d="M774 7831 c-15 -25 -39 -64 -52 -86 -13 -22 -32 -54 -43 -71 l-19
-32 57 -23 c150 -59 307 -201 393 -353 48 -86 64 -147 64 -241 0 -104 -19
-157 -79 -224 -158 -174 -445 -132 -678 101 -38 38 -71 67 -73 65 -9 -9 -94
-259 -94 -275 0 -33 146 -138 265 -192 103 -46 189 -65 300 -65 55 0 123 6
150 14 171 47 329 177 403 331 142 298 39 657 -265 921 -73 63 -181 131 -252
158 l-48 18 -29 -46z"/>
<path d="M2953 7824 c-141 -31 -309 -154 -386 -283 -66 -112 -81 -170 -81
-321 0 -113 3 -146 22 -205 91 -283 324 -521 607 -622 73 -26 92 -28 220 -28
130 0 145 2 213 29 151 59 271 167 342 308 52 104 63 166 57 313 -3 93 -10
136 -29 190 -50 139 -112 237 -227 357 -207 217 -488 317 -738 262z m251 -268
c111 -38 192 -90 291 -191 100 -100 144 -168 182 -276 21 -62 25 -86 21 -159
-3 -70 -9 -94 -33 -139 -119 -218 -411 -229 -658 -26 -118 97 -208 222 -254
350 -26 73 -24 205 5 267 38 86 124 162 212 189 54 16 160 9 234 -15z"/>
<path d="M7854 7556 c-190 -62 -335 -201 -402 -389 -22 -62 -26 -89 -26 -197
-1 -150 14 -215 80 -347 181 -362 594 -589 920 -504 217 56 386 221 450 436
26 88 23 247 -5 349 -85 306 -356 577 -656 655 -112 30 -264 28 -361 -3z m239
-242 c279 -63 547 -366 547 -619 0 -95 -23 -155 -82 -220 -28 -31 -74 -68
-102 -83 -46 -24 -62 -27 -151 -26 -90 0 -108 4 -176 32 -170 73 -340 239
-414 407 -100 226 -15 445 198 506 79 22 92 23 180 3z"/>
<path d="M4850 7135 c-287 -79 -476 -344 -457 -640 8 -119 27 -191 83 -301
115 -231 336 -422 574 -495 109 -34 285 -34 389 0 187 61 341 220 403 414 30
92 29 256 -1 362 -84 292 -320 538 -616 642 -91 32 -289 41 -375 18z m262
-265 c226 -70 447 -310 493 -537 44 -211 -108 -403 -319 -403 -120 0 -228 42
-353 136 -232 177 -345 447 -263 632 47 105 128 165 265 196 31 7 114 -4 177
-24z"/>
<path d="M1892 6867 c-55 -53 -77 -89 -159 -245 -52 -101 -92 -189 -90 -196 7
-18 166 -109 180 -103 7 2 35 47 64 98 29 52 59 103 67 114 14 19 35 0 460
-424 397 -397 446 -443 461 -431 51 42 165 162 165 172 0 15 -1060 1078 -1075
1078 -6 0 -39 -28 -73 -63z"/>
<path d="M9459 6643 c-50 -51 -79 -94 -119 -173 -29 -58 -73 -143 -97 -189
-24 -46 -42 -85 -41 -86 26 -18 178 -105 185 -105 5 0 40 54 78 120 l69 121
354 -353 c324 -324 353 -350 349 -318 -3 19 -12 89 -21 155 -9 66 -21 147 -28
180 l-11 60 -321 327 c-177 180 -323 328 -326 328 -3 0 -35 -30 -71 -67z"/>
<path d="M6837 6617 c-40 -40 -80 -93 -105 -138 -69 -129 -152 -296 -152 -307
0 -10 164 -112 180 -112 5 0 23 26 41 58 17 31 48 85 68 120 l35 62 448 -447
448 -448 95 95 95 95 -543 543 -544 544 -66 -65z"/>
<path d="M156 6372 c-16 -26 -96 -437 -96 -493 0 -21 -4 -49 -10 -63 -5 -15
-16 -104 -25 -200 -8 -96 -18 -182 -21 -190 -16 -41 65 4 134 75 111 113 162
234 169 405 5 102 2 133 -16 203 -32 121 -118 290 -135 263z"/>
<path d="M3808 6186 c-59 -57 -79 -88 -159 -243 -51 -98 -96 -183 -101 -189
-10 -14 -3 -20 96 -78 44 -26 84 -45 90 -43 6 3 37 52 69 110 32 59 63 109 68
113 7 4 202 -185 455 -437 l444 -444 95 95 95 95 -543 543 -543 543 -66 -65z"/>
<path d="M1253 6100 c-229 -42 -435 -236 -488 -463 -19 -79 -19 -207 -1 -294
59 -280 302 -557 587 -669 101 -39 238 -58 329 -44 155 23 254 73 360 179 81
82 135 172 165 276 24 82 24 228 0 325 -74 302 -336 576 -639 669 -79 24 -235
35 -313 21z m195 -266 c160 -46 322 -171 424 -325 159 -242 119 -495 -96 -595
-41 -19 -67 -24 -137 -24 -143 0 -270 57 -402 180 -90 84 -132 139 -180 235
-88 176 -68 350 54 459 90 81 211 106 337 70z"/>
<path d="M8844 6028 c-51 -52 -78 -95 -158 -252 -54 -103 -96 -189 -94 -191
12 -12 175 -105 183 -105 6 0 38 50 73 110 35 60 68 113 74 116 6 4 210 -193
454 -437 l444 -444 92 93 93 92 -540 540 c-297 297 -545 540 -550 540 -6 0
-38 -28 -71 -62z"/>
<path d="M6222 6001 c-60 -61 -80 -92 -157 -243 -48 -95 -92 -179 -98 -186 -5
-7 -8 -14 -6 -16 13 -12 179 -106 188 -106 5 0 38 52 73 115 35 63 67 115 73
115 5 0 209 -199 452 -442 l443 -443 94 95 94 95 -543 543 -544 543 -69 -70z"/>
<path d="M3186 5567 c-56 -59 -79 -98 -212 -357 -21 -41 -39 -78 -39 -82 0 -4
43 -32 95 -62 l95 -54 61 109 c33 60 66 115 73 122 9 9 111 -88 456 -433 l445
-445 92 92 91 92 -533 540 c-293 298 -540 541 -549 540 -9 0 -42 -28 -75 -62z"/>
<path d="M5602 5382 c-35 -37 -75 -89 -89 -117 -13 -27 -56 -110 -94 -184 -39
-73 -68 -135 -66 -138 5 -4 107 -66 155 -94 l32 -19 18 29 c10 16 40 70 67
120 28 50 54 91 60 91 5 0 209 -199 452 -442 l443 -443 92 93 93 92 -540 540
c-297 297 -544 540 -550 539 -5 0 -38 -30 -73 -67z"/>
<path d="M8205 5260 c-222 -41 -423 -227 -480 -446 -23 -88 -20 -260 6 -353
79 -285 320 -534 619 -641 56 -21 84 -24 210 -24 163 0 207 10 322 80 218 133
328 376 289 641 -46 313 -321 622 -646 722 -80 25 -241 35 -320 21z m203 -266
c161 -47 331 -180 430 -338 89 -141 113 -305 61 -416 -30 -65 -96 -131 -159
-162 -67 -33 -198 -37 -282 -9 -213 71 -416 276 -478 482 -60 198 16 369 195
442 52 21 162 21 233 1z"/>
<path d="M125 4980 c-22 -5 -58 -15 -80 -23 -38 -13 -40 -16 -43 -63 -2 -27 2
-87 8 -135 l12 -85 45 22 c195 99 505 -37 679 -298 78 -117 98 -177 99 -298 0
-91 -3 -111 -23 -148 -33 -63 -84 -114 -144 -148 -49 -27 -61 -29 -158 -29
-125 0 -183 19 -299 96 -41 27 -76 47 -78 45 -5 -5 48 -212 78 -303 18 -54 24
-63 52 -72 183 -55 346 -44 502 37 100 51 218 172 267 272 37 77 68 206 68
284 0 22 -9 83 -20 134 -54 263 -270 528 -530 649 -134 63 -311 88 -435 63z"/>
<path d="M2515 4791 c-203 -50 -361 -197 -438 -406 -12 -33 -20 -90 -24 -166
-6 -130 12 -225 66 -344 110 -243 365 -462 613 -526 69 -18 100 -20 202 -16
77 3 137 11 166 22 184 68 326 208 391 385 20 57 23 83 24 205 0 121 -3 150
-24 215 -136 426 -598 725 -976 631z m280 -273 c104 -40 177 -89 266 -177 127
-127 195 -256 206 -391 14 -185 -96 -329 -276 -360 -104 -19 -239 20 -361 103
-190 129 -330 353 -330 528 0 143 108 284 245 320 54 15 186 3 250 -23z"/>
<path d="M4979 4620 c-196 -25 -384 -176 -471 -378 -32 -76 -33 -79 -33 -227
0 -127 3 -160 22 -215 35 -105 52 -140 110 -228 122 -184 306 -327 506 -394
79 -26 252 -35 340 -18 207 40 389 205 463 420 30 86 27 301 -5 395 -112 332
-413 599 -727 645 -77 11 -122 11 -205 0z m197 -271 c211 -64 402 -247 486
-464 32 -84 32 -219 -1 -289 -54 -115 -171 -188 -301 -189 -247 -2 -545 243
-624 512 -43 146 -6 279 106 379 76 68 211 89 334 51z"/>
<path d="M9865 4351 c-103 -25 -189 -75 -276 -161 -96 -94 -149 -198 -175
-339 -16 -87 -16 -100 0 -195 31 -189 103 -331 245 -479 59 -62 150 -137 164
-137 7 0 30 51 77 168 l32 82 -76 81 c-123 130 -183 248 -193 378 -8 101 13
173 70 242 63 78 131 112 231 117 74 3 133 -4 178 -23 19 -8 18 -11 43 130 9
50 18 100 20 111 4 19 -2 23 -52 33 -80 16 -206 12 -288 -8z"/>
<path d="M7090 4143 c-239 -48 -425 -226 -486 -463 -26 -102 -15 -280 23 -387
89 -247 308 -475 544 -569 305 -120 618 -33 787 219 78 118 97 185 97 347 -1
154 -12 205 -77 335 -112 228 -330 418 -568 495 -65 21 -261 35 -320 23z m182
-264 c203 -43 439 -263 514 -479 28 -82 26 -220 -4 -281 -30 -61 -99 -131
-159 -160 -64 -32 -221 -34 -298 -5 -256 99 -467 353 -482 581 -8 129 37 230
135 297 81 55 179 71 294 47z"/>
<path d="M3873 3651 c-59 -60 -79 -92 -155 -243 -48 -95 -88 -179 -90 -185 -3
-13 172 -124 184 -117 3 2 34 55 69 117 34 61 64 114 66 117 2 2 203 -195 446
-438 243 -243 447 -442 452 -442 6 0 51 41 100 90 l90 90 -540 540 c-297 297
-543 540 -547 540 -4 0 -38 -31 -75 -69z"/>
<path d="M1428 3680 c-157 -27 -329 -147 -412 -289 -63 -109 -81 -180 -81
-326 1 -146 16 -208 81 -338 110 -221 334 -416 560 -487 96 -31 266 -38 354
-16 159 40 312 154 392 292 135 232 101 538 -87 789 -211 279 -520 423 -807
375z m214 -270 c125 -38 219 -101 325 -214 208 -225 244 -476 89 -632 -144
-144 -374 -126 -592 47 -118 93 -200 202 -251 332 -23 59 -28 87 -28 157 0 73
4 93 28 142 34 70 110 140 180 167 69 26 166 27 249 1z"/>
<path d="M8767 3239 c-204 -40 -399 -226 -457 -438 -36 -128 -25 -288 30 -436
74 -201 263 -407 465 -508 81 -40 209 -82 229 -74 13 5 187 218 194 238 2 5
-22 9 -53 9 -181 0 -400 139 -534 340 -103 153 -127 323 -64 448 94 186 327
227 559 97 159 -89 333 -306 360 -450 3 -19 10 -33 14 -30 8 5 67 104 134 228
l37 68 -27 47 c-133 228 -390 422 -615 461 -76 13 -203 13 -272 0z"/>
<path d="M5993 3178 c-49 -51 -75 -91 -133 -208 -40 -80 -84 -164 -98 -188
-13 -24 -23 -44 -21 -46 14 -13 176 -106 185 -106 6 0 40 52 75 115 35 63 68
114 74 115 5 0 209 -199 452 -442 l443 -443 92 93 93 92 -540 540 c-297 297
-545 540 -550 540 -6 0 -38 -28 -72 -62z"/>
<path d="M3265 2894 c-197 -48 -306 -112 -400 -237 -191 -253 -171 -583 54
-875 180 -232 427 -366 676 -366 171 1 309 58 431 179 123 123 184 267 184
438 0 358 -299 732 -670 838 -64 19 -235 33 -275 23z m221 -289 c88 -33 166
-86 253 -169 113 -110 176 -212 207 -336 43 -175 -31 -330 -192 -402 -65 -28
-186 -28 -274 2 -220 73 -440 310 -480 518 -17 82 -8 180 20 234 45 89 134
159 223 178 62 13 172 2 243 -25z"/>
<path d="M710 2505 c0 -17 178 -289 278 -425 106 -144 283 -360 294 -360 12 0
0 90 -23 180 -60 227 -263 471 -488 585 -51 25 -61 29 -61 20z"/>
<path d="M5320 2401 c-179 -48 -334 -178 -410 -346 -37 -81 -50 -148 -50 -260
0 -208 80 -390 247 -566 188 -197 382 -289 609 -289 176 0 314 58 439 185 117
119 175 262 175 435 0 318 -224 638 -554 790 -149 69 -318 88 -456 51z m234
-256 c265 -69 526 -375 526 -617 0 -155 -108 -288 -264 -323 -62 -14 -75 -15
-143 0 -92 19 -145 41 -234 100 -127 85 -239 220 -296 357 -22 53 -27 79 -27
163 -1 88 2 106 24 149 43 83 121 150 210 177 43 13 143 10 204 -6z"/>
<path d="M7690 2273 c-51 -55 -81 -103 -156 -250 -67 -132 -89 -184 -81 -191
21 -17 168 -102 177 -102 5 0 26 33 48 73 78 143 87 157 97 157 6 0 170 -160
365 -355 195 -195 360 -355 365 -355 13 0 185 158 185 169 0 13 -912 921 -925
921 -7 0 -41 -30 -75 -67z"/>
<path d="M2085 1761 c-174 -43 -324 -165 -406 -331 -17 -34 -29 -70 -27 -80 2
-11 50 -60 108 -110 l105 -90 7 64 c8 84 39 150 95 208 70 71 127 93 243 91
82 0 105 -5 168 -31 185 -77 344 -236 425 -424 27 -64 31 -85 31 -168 1 -82
-2 -102 -24 -145 -14 -27 -47 -72 -73 -99 -56 -56 -63 -46 78 -118 l100 -50
36 42 c155 180 183 463 70 706 -181 386 -590 620 -936 535z"/>
<path d="M7020 1504 c-95 -24 -197 -83 -270 -154 -79 -76 -119 -135 -157 -234
-26 -66 -28 -81 -28 -216 0 -115 4 -156 19 -200 46 -136 143 -295 235 -384
l40 -39 78 27 c43 16 92 34 108 41 17 8 48 21 70 30 l40 17 -35 26 c-19 14
-69 60 -110 102 -209 210 -259 468 -122 628 129 153 377 147 591 -14 125 -93
231 -234 276 -364 11 -30 20 -56 21 -58 2 -3 108 63 187 116 45 30 45 44 1
140 -90 198 -287 396 -481 483 -149 67 -331 88 -463 53z"/>
<path d="M4269 1453 c-31 -32 -65 -74 -76 -93 -16 -27 -165 -316 -181 -351 -3
-8 170 -109 185 -109 6 0 38 49 72 109 33 61 66 113 72 117 7 4 194 -176 455
-437 l444 -444 92 93 93 92 -540 540 c-297 297 -545 540 -550 540 -6 0 -36
-26 -66 -57z"/>
<path d="M3653 838 c-43 -46 -75 -95 -118 -178 -32 -63 -76 -148 -97 -189 -28
-52 -37 -76 -29 -84 19 -19 175 -106 182 -101 4 2 25 37 46 77 22 39 52 92 67
116 l28 44 227 -227 c260 -260 222 -238 476 -271 72 -10 146 -19 165 -22 32
-4 -5 35 -415 446 -247 248 -455 451 -461 451 -6 0 -38 -28 -71 -62z"/>
<path d="M5969 553 c-52 -54 -79 -93 -127 -188 -33 -66 -76 -151 -96 -189
l-36 -69 62 -38 c109 -67 145 -55 213 70 27 50 54 91 60 91 6 0 42 -32 80 -70
79 -80 55 -76 236 -33 58 13 112 29 119 33 10 6 -48 70 -213 234 -124 124
-227 226 -229 226 -2 0 -33 -30 -69 -67z"/>
</g>
</svg>
