<?xml version="1.0" encoding="UTF-8"?>
<!DOCTYPE svg PUBLIC "-//W3C//DTD SVG 1.1//EN" "http://www.w3.org/Graphics/SVG/1.1/DTD/svg11.dtd">
<svg xmlns="http://www.w3.org/2000/svg" version="1.1" width="1024px" height="1024px" style="shape-rendering:geometricPrecision; text-rendering:geometricPrecision; image-rendering:optimizeQuality; fill-rule:evenodd; clip-rule:evenodd" xmlns:xlink="http://www.w3.org/1999/xlink">
<g><path style="opacity:0.885" fill="#7f3133" d="M 540.5,-0.5 C 548.167,-0.5 555.833,-0.5 563.5,-0.5C 565.265,0.461384 567.265,0.794717 569.5,0.5C 570.278,12.9217 574.111,24.255 581,34.5C 588.897,43.3977 597.731,51.231 607.5,58C 612.805,60.2171 618.139,62.2171 623.5,64C 642.15,66.8304 654.983,59.6637 662,42.5C 662.691,34.8053 662.525,27.1387 661.5,19.5C 671.677,21.9226 681.677,24.9226 691.5,28.5C 691.3,58.764 677.3,79.5974 649.5,91C 615.59,97.919 587.09,88.419 564,62.5C 548.176,44.5341 540.343,23.5341 540.5,-0.5 Z"/></g>
<g><path style="opacity:0.849" fill="#7f3133" d="M 413.5,5.5 C 417.226,5.17744 420.893,5.51078 424.5,6.5C 433.472,15.8068 442.472,25.1401 451.5,34.5C 444.474,41.1944 437.474,47.8611 430.5,54.5C 429.034,53.8645 427.7,53.0312 426.5,52C 413.595,39.0506 400.928,25.884 388.5,12.5C 396.135,10.2237 404.135,8.3904 412.5,7C 413.056,6.61742 413.389,6.11742 413.5,5.5 Z"/></g>
<g><path style="opacity:0.885" fill="#7f3133" d="M 332.5,28.5 C 333.873,28.3433 335.207,28.51 336.5,29C 348.377,40.2222 357.544,53.3888 364,68.5C 375.781,108.314 363.281,137.148 326.5,155C 296.783,162.263 270.783,155.597 248.5,135C 234.666,122.5 224.999,107.334 219.5,89.5C 219.919,88.3279 220.585,87.3279 221.5,86.5C 228.363,81.7574 235.363,77.2574 242.5,73C 243.793,72.51 245.127,72.3433 246.5,72.5C 248.165,80.1573 250.831,87.4906 254.5,94.5C 264.108,107.949 276.275,118.282 291,125.5C 311.322,133.417 326.822,127.917 337.5,109C 340.355,97.9834 339.355,87.3167 334.5,77C 326.43,63.0963 315.763,51.5963 302.5,42.5C 303.515,41.3185 304.681,40.3185 306,39.5C 315.212,36.4692 324.045,32.8026 332.5,28.5 Z"/></g>
<g><path style="opacity:0.887" fill="#7f3133" d="M 489.5,32.5 C 490.978,32.238 492.311,32.5713 493.5,33.5C 529.72,69.8864 565.72,106.386 601.5,143C 595.545,149.957 589.211,156.624 582.5,163C 581.5,163.667 580.5,163.667 579.5,163C 550.931,133.387 521.931,104.22 492.5,75.5C 491.5,76.5 490.5,77.5 489.5,78.5C 486.106,85.2016 482.772,91.8683 479.5,98.5C 478.127,98.6567 476.793,98.49 475.5,98C 469.833,94.6667 464.167,91.3333 458.5,88C 457.196,87.196 456.529,86.0293 456.5,84.5C 462.856,73.1211 468.689,61.4544 474,49.5C 479.345,43.9888 484.511,38.3222 489.5,32.5 Z"/></g>
<g><path style="opacity:0.883" fill="#7f3133" d="M 732.5,47.5 C 735.311,47.5713 737.978,48.238 740.5,49.5C 746.241,53.0371 752.241,56.0371 758.5,58.5C 757.012,62.6833 755.012,66.6833 752.5,70.5C 751.921,74.6753 750.921,78.6753 749.5,82.5C 752.865,103.448 763.032,119.448 780,130.5C 783.051,133.555 786.384,136.221 790,138.5C 790.333,138.167 790.667,137.833 791,137.5C 800.043,143.065 809.877,144.899 820.5,143C 831.277,139.888 838.444,133.055 842,122.5C 842.745,121.01 843.912,120.01 845.5,119.5C 853.011,124.942 860.011,131.109 866.5,138C 849.858,167.219 824.858,178.385 791.5,171.5C 768.666,164.259 750.332,150.926 736.5,131.5C 722.572,111.454 718.405,89.4545 724,65.5C 726.779,59.4261 729.613,53.4261 732.5,47.5 Z"/></g>
<g><path style="opacity:0.878" fill="#7f3133" d="M 428.5,93.5 C 431.772,95.1506 434.772,97.3173 437.5,100C 471,134.167 504.833,168 539,201.5C 539.5,202.5 540,203.5 540.5,204.5C 533.833,211.833 526.833,218.833 519.5,225.5C 489.833,195.833 460.167,166.167 430.5,136.5C 426.453,144.223 422.453,151.889 418.5,159.5C 416.409,159.682 414.409,159.348 412.5,158.5C 407.538,154.704 402.205,151.537 396.5,149C 395.941,148.275 395.608,147.442 395.5,146.5C 401.772,134.29 407.772,121.956 413.5,109.5C 418.522,104.146 423.522,98.813 428.5,93.5 Z"/></g>
<g><path style="opacity:0.886" fill="#7f3133" d="M 670.5,111.5 C 673.195,112.463 675.528,113.963 677.5,116C 711.465,150.662 745.799,185.162 780.5,219.5C 781.695,222.123 781.195,224.456 779,226.5C 773.929,231.615 768.763,236.615 763.5,241.5C 762.167,242.833 760.833,242.833 759.5,241.5C 757.65,239.482 755.65,237.649 753.5,236C 726.883,208.716 699.716,181.55 672,154.5C 667.397,162.102 663.231,169.936 659.5,178C 659,178.167 658.5,178.333 658,178.5C 651.74,174.362 645.24,170.696 638.5,167.5C 637.333,164.8 637.5,162.133 639,159.5C 645.124,148.279 650.957,136.945 656.5,125.5C 661.548,121.119 666.215,116.452 670.5,111.5 Z"/></g>
<g><path style="opacity:0.883" fill="#7f3133" d="M 178.5,119.5 C 192.495,121.166 205.161,126.166 216.5,134.5C 230.644,145.114 241.644,158.448 249.5,174.5C 264.015,210.959 255.348,240.459 223.5,263C 201.668,273.153 180.002,272.819 158.5,262C 131.755,247.509 114.421,225.843 106.5,197C 106.833,195.833 107.167,194.667 107.5,193.5C 116.852,182.153 126.519,171.153 136.5,160.5C 137.72,160.887 138.387,161.72 138.5,163C 135.449,167.87 134.116,173.204 134.5,179C 134.515,184.092 135.182,189.092 136.5,194C 146.271,217.38 163.271,232.713 187.5,240C 206.717,243.235 219.717,235.901 226.5,218C 228.345,208.627 227.345,199.627 223.5,191C 213.406,170.238 197.406,156.238 175.5,149C 169.167,148.333 162.833,148.333 156.5,149C 153.312,150.63 149.979,151.796 146.5,152.5C 146.343,151.127 146.51,149.793 147,148.5C 157.099,138.235 167.599,128.568 178.5,119.5 Z"/></g>
<g><path style="opacity:0.877" fill="#7f3133" d="M 366.5,155.5 C 368.827,155.247 370.827,155.914 372.5,157.5C 408.404,193.281 444.07,229.281 479.5,265.5C 472.777,273.404 465.444,280.237 457.5,286C 428,256.5 398.5,227 369,197.5C 365.37,205.346 361.536,213.013 357.5,220.5C 355.011,220.702 352.677,220.202 350.5,219C 346.284,216.282 341.951,213.782 337.5,211.5C 335.728,210.73 334.728,209.397 334.5,207.5C 340.018,195.064 346.018,182.897 352.5,171C 357.038,165.633 361.705,160.467 366.5,155.5 Z"/></g>
<g><path style="opacity:0.881" fill="#7f3133" d="M 885.5,157.5 C 892.946,164.376 899.946,171.709 906.5,179.5C 901.111,181.611 896.277,184.611 892,188.5C 891.667,188.167 891.333,187.833 891,187.5C 881.943,196.998 878.609,208.332 881,221.5C 888.693,244.229 904.193,260.729 927.5,271C 940.725,276.326 952.892,274.492 964,265.5C 964.925,266.047 965.758,266.713 966.5,267.5C 969.382,273.645 972.549,279.645 976,285.5C 976.813,287.436 977.313,289.436 977.5,291.5C 954.466,305.964 930.466,307.297 905.5,295.5C 877.828,281.153 860.162,258.82 852.5,228.5C 848.418,204.461 854.751,184.294 871.5,168C 876.399,164.573 881.066,161.073 885.5,157.5 Z"/></g>
<g><path style="opacity:0.897" fill="#7f3133" d="M 599.5,194.5 C 623.992,192.441 645.658,199.108 664.5,214.5C 680.189,227.506 691.189,243.84 697.5,263.5C 704.15,291.786 696.817,315.119 675.5,333.5C 650.963,349.478 625.63,350.645 599.5,337C 568.988,319.647 551.988,293.48 548.5,258.5C 549.116,235.908 558.449,217.908 576.5,204.5C 584.327,201.016 591.993,197.683 599.5,194.5 Z M 603.5,223.5 C 634.438,226.278 655.938,241.944 668,270.5C 668.942,275.715 670.109,280.881 671.5,286C 668.909,304.924 658.075,315.424 639,317.5C 611.526,312.19 592.026,296.856 580.5,271.5C 572.564,247.517 580.23,231.517 603.5,223.5 Z"/></g>
<g><path style="opacity:0.886" fill="#7f3133" d="M 78.5,234.5 C 85.1709,235.836 91.5043,238.169 97.5,241.5C 121.68,256.516 137.18,277.849 144,305.5C 147.717,338.556 134.883,362.556 105.5,377.5C 101.589,378.955 97.5886,380.122 93.5,381C 66.1566,384.186 42.8233,376.353 23.5,357.5C 23.1667,356.333 22.8333,355.167 22.5,354C 24.9392,346.151 27.4392,338.318 30,330.5C 30.8816,327.976 32.3816,325.976 34.5,324.5C 41.5232,331.853 49.1898,338.52 57.5,344.5C 63.856,347.896 70.5227,350.396 77.5,352C 100.306,353.946 112.973,343.613 115.5,321C 113.956,306.746 108.456,294.246 99,283.5C 89.8143,272.904 78.4809,265.57 65,261.5C 64.5162,259.087 64.8495,256.754 66,254.5C 70.2676,247.808 74.4343,241.142 78.5,234.5 Z"/></g>
<g><path style="opacity:0.895" fill="#7f3133" d="M 299.5,237.5 C 330.035,236.354 355.201,247.354 375,270.5C 388.638,286.231 396.138,304.564 397.5,325.5C 395.476,356.465 379.976,377.132 351,387.5C 330.001,391.901 310.335,388.568 292,377.5C 268.778,362.744 253.778,342.078 247,315.5C 242.443,274.2 259.943,248.2 299.5,237.5 Z M 296.5,267.5 C 323.634,267.48 344.467,278.813 359,301.5C 364.24,309.968 367.407,319.134 368.5,329C 363.507,354.595 348.174,364.261 322.5,358C 301.446,349.104 286.446,334.604 277.5,314.5C 270.171,292.843 276.504,277.176 296.5,267.5 Z"/></g>
<g><path style="opacity:0.896" fill="#7f3133" d="M 794.5,263.5 C 809.826,262.288 824.326,264.954 838,271.5C 859.979,283.809 875.979,301.476 886,324.5C 898.034,363.504 886.534,392.337 851.5,411C 829.336,418.278 808.169,416.111 788,404.5C 763.416,389.564 747.582,368.064 740.5,340C 740.833,339.667 741.167,339.333 741.5,339C 736.205,311.048 745.538,288.882 769.5,272.5C 777.678,267.857 786.011,264.857 794.5,263.5 Z M 790.5,293.5 C 800.695,292.55 810.529,293.883 820,297.5C 838.945,307.11 852.279,321.776 860,341.5C 865.944,362.778 858.778,377.278 838.5,385C 825.524,387.381 814.024,384.547 804,376.5C 803.667,376.833 803.333,377.167 803,377.5C 790.443,368.524 780.443,357.191 773,343.5C 763.003,320.934 768.836,304.268 790.5,293.5 Z"/></g>
<g><path style="opacity:0.897" fill="#7f3133" d="M 495.5,305.5 C 528.507,307.327 553.841,321.494 571.5,348C 585.807,365.798 590.807,386.132 586.5,409C 577.319,440.178 556.486,456.678 524,458.5C 512.298,457.903 501.131,455.237 490.5,450.5C 467.906,438.073 451.406,420.073 441,396.5C 430.39,363.31 438.89,336.31 466.5,315.5C 471.054,313.04 475.721,310.873 480.5,309C 485.917,308.492 490.917,307.325 495.5,305.5 Z M 489.5,336.5 C 496.555,336.27 503.555,336.77 510.5,338C 533.022,346.522 548.522,362.022 557,384.5C 562.673,409.847 552.84,424.847 527.5,429.5C 496.16,423.329 475.66,404.995 466,374.5C 463.539,355.186 471.372,342.519 489.5,336.5 Z"/></g>
<g><path style="opacity:0.882" fill="#7f3133" d="M 193.5,328.5 C 194.873,328.343 196.207,328.51 197.5,329C 234.041,365.374 270.374,401.874 306.5,438.5C 300.376,445.126 294.042,451.626 287.5,458C 286.056,458.781 284.723,458.614 283.5,457.5C 254.492,428.79 225.492,400.124 196.5,371.5C 191.374,378.755 187.041,386.422 183.5,394.5C 176.691,391.845 170.191,388.512 164,384.5C 162.298,383.631 161.131,382.298 160.5,380.5C 167.325,367.518 174.158,354.518 181,341.5C 185.398,337.271 189.564,332.938 193.5,328.5 Z"/></g>
<g><path style="opacity:0.874" fill="#7f3133" d="M 1023.5,446.5 C 1023.5,451.833 1023.5,457.167 1023.5,462.5C 1000.08,440.586 977.084,418.086 954.5,395C 953.365,394.251 952.365,394.417 951.5,395.5C 948.248,403.54 943.914,410.873 938.5,417.5C 931.454,413.08 924.454,408.58 917.5,404C 923.145,391.859 929.145,379.859 935.5,368C 940.622,361.516 946.122,355.35 952,349.5C 973.919,371.419 995.919,393.419 1018,415.5C 1020.53,425.821 1022.36,436.155 1023.5,446.5 Z"/></g>
<g><path style="opacity:0.879" fill="#7f3133" d="M 687.5,354.5 C 689.655,354.372 691.655,354.872 693.5,356C 728.069,391.613 763.069,426.78 798.5,461.5C 799.833,463.5 799.833,465.5 798.5,467.5C 792.988,472.512 787.655,477.679 782.5,483C 780.5,483.667 778.5,483.667 776.5,483C 747.946,454.113 719.446,425.28 691,396.5C 685.993,404.221 681.493,411.721 677.5,419C 675.447,419.325 673.447,418.991 671.5,418C 666.548,414.754 661.548,411.588 656.5,408.5C 655.167,406.5 655.167,404.5 656.5,402.5C 662.456,390.296 668.789,378.296 675.5,366.5C 679.881,362.785 683.881,358.785 687.5,354.5 Z"/></g>
<g><path style="opacity:0.85" fill="#7f3133" d="M -0.5,485.5 C -0.5,480.167 -0.5,474.833 -0.5,469.5C 1.91946,440.859 6.58612,412.526 13.5,384.5C 14.5237,383.147 15.857,382.48 17.5,382.5C 20.8083,388.34 23.975,394.34 27,400.5C 39.9812,434.99 31.8145,463.157 2.5,485C 1.55198,485.483 0.551975,485.649 -0.5,485.5 Z"/></g>
<g><path style="opacity:0.886" fill="#7f3133" d="M 384.5,396.5 C 385.978,396.238 387.311,396.571 388.5,397.5C 423.939,433.36 459.605,469.027 495.5,504.5C 496.485,506.098 496.651,507.765 496,509.5C 489.439,515.64 483.105,521.973 477,528.5C 447.105,499.027 417.439,469.36 388,439.5C 383.501,446.992 379.001,454.492 374.5,462C 372.623,462.576 370.789,462.409 369,461.5C 363.956,457.563 358.456,454.563 352.5,452.5C 352.192,450.076 352.526,447.743 353.5,445.5C 359.304,435.266 364.637,424.766 369.5,414C 374.738,408.27 379.738,402.437 384.5,396.5 Z"/></g>
<g><path style="opacity:0.897" fill="#7f3133" d="M 124.5,411.5 C 144.043,409.14 162.043,413.14 178.5,423.5C 200.733,438.272 215.4,458.605 222.5,484.5C 227.258,515.807 216.258,539.64 189.5,556C 168.392,564.796 147.392,564.463 126.5,555C 98.208,540.023 80.3747,516.857 73,485.5C 69.5018,454.996 81.0018,432.162 107.5,417C 112.989,414.229 118.655,412.396 124.5,411.5 Z M 128.5,439.5 C 149.396,441.196 166.563,450.196 180,466.5C 186.914,474.737 191.581,484.07 194,494.5C 195.445,503.337 194.112,511.67 190,519.5C 186.678,522.988 183.178,526.321 179.5,529.5C 174.01,531.248 168.51,532.581 163,533.5C 147.03,531.686 133.53,525.019 122.5,513.5C 111.891,503.558 105.058,491.892 102,478.5C 101.264,473.134 101.431,467.8 102.5,462.5C 103.658,459.27 105.325,456.436 107.5,454C 107.167,453.667 106.833,453.333 106.5,453C 109.07,450.886 111.403,448.553 113.5,446C 118.567,443.495 123.567,441.329 128.5,439.5 Z"/></g>
<g><path style="opacity:0.885" fill="#7f3133" d="M 889.5,412.5 C 892.382,412.608 894.715,413.774 896.5,416C 931.325,451.565 966.325,486.898 1001.5,522C 1000.37,524.455 998.872,526.622 997,528.5C 991.797,533.416 986.464,538.083 981,542.5C 951.592,514.093 922.426,485.26 893.5,456C 892.365,455.251 891.365,455.417 890.5,456.5C 886.343,463.637 882.676,470.971 879.5,478.5C 874.404,476.849 869.571,474.516 865,471.5C 861.744,469.864 858.911,467.697 856.5,465C 862.171,452.828 868.171,440.828 874.5,429C 879.031,422.974 884.031,417.474 889.5,412.5 Z"/></g>
<g><path style="opacity:0.876" fill="#7f3133" d="M 626.5,415.5 C 627.873,415.343 629.207,415.51 630.5,416C 666.053,451.597 701.72,487.097 737.5,522.5C 738.485,524.098 738.651,525.765 738,527.5C 732.318,533.015 726.818,538.681 721.5,544.5C 719.926,545.631 718.259,545.798 716.5,545C 687.833,516.333 659.167,487.667 630.5,459C 629.551,458.383 628.718,458.549 628,459.5C 624.318,466.186 620.651,472.853 617,479.5C 616.311,480.357 615.478,481.023 614.5,481.5C 608.321,477.577 601.988,473.91 595.5,470.5C 594.227,468.016 594.227,465.516 595.5,463C 601.748,452.949 607.248,442.449 612,431.5C 616.33,425.672 621.163,420.339 626.5,415.5 Z"/></g>
<g><path style="opacity:0.887" fill="#7f3133" d="M 324.5,457.5 C 361.669,493.167 398.502,529.5 435,566.5C 435.667,567.833 435.667,569.167 435,570.5C 428.679,576.987 422.179,583.321 415.5,589.5C 385.792,559.959 356.292,530.293 327,500.5C 322.499,508.008 317.999,515.508 313.5,523C 311.623,523.576 309.789,523.409 308,522.5C 302.395,520.074 296.895,516.74 291.5,512.5C 290.814,510.936 290.981,509.269 292,507.5C 298.502,496.459 304.169,485.459 309,474.5C 314.004,468.664 319.171,462.997 324.5,457.5 Z"/></g>
<g><path style="opacity:0.885" fill="#7f3133" d="M 564.5,476.5 C 566.199,476.34 567.866,476.506 569.5,477C 605.167,512.833 640.833,548.667 676.5,584.5C 677.614,585.723 677.781,587.056 677,588.5C 671.402,594.054 665.902,599.72 660.5,605.5C 658.5,606.833 656.5,606.833 654.5,605.5C 625.847,576.347 597.014,547.347 568,518.5C 564.741,524.017 561.741,529.684 559,535.5C 557.431,538.183 555.431,540.516 553,542.5C 546.045,538.517 539.212,534.35 532.5,530C 538.349,516.802 544.683,503.802 551.5,491C 556.04,486.297 560.373,481.463 564.5,476.5 Z"/></g>
<g><path style="opacity:0.896" fill="#7f3133" d="M 820.5,494.5 C 850.928,493.336 876.095,503.669 896,525.5C 907.204,538.574 914.704,553.574 918.5,570.5C 922.508,601.049 911.508,624.216 885.5,640C 857.605,650.934 831.605,647.601 807.5,630C 792.278,618.551 780.944,604.051 773.5,586.5C 761.06,552.77 769.06,525.27 797.5,504C 801.193,501.654 805.193,499.988 809.5,499C 809.167,498.667 808.833,498.333 808.5,498C 812.147,497.226 815.814,496.559 819.5,496C 820.056,495.617 820.389,495.117 820.5,494.5 Z M 824.5,523.5 C 829.869,524.007 835.202,524.841 840.5,526C 864.976,534.894 881.309,552.061 889.5,577.5C 892.598,600.977 882.431,614.311 859,617.5C 826.518,611.352 805.852,592.352 797,560.5C 796.233,540.472 805.399,528.139 824.5,523.5 Z"/></g>
<g><path style="opacity:0.889" fill="#7f3133" d="M -0.5,556.5 C -0.5,546.833 -0.5,537.167 -0.5,527.5C 22.3885,520.238 44.2219,522.571 65,534.5C 88.3549,549.04 103.522,569.707 110.5,596.5C 115.595,637.185 98.5946,663.018 59.5,674C 52.1667,674.667 44.8333,674.667 37.5,674C 32.1953,672.643 26.862,671.476 21.5,670.5C 19.2838,659.303 16.2838,648.303 12.5,637.5C 11.8384,634.532 11.505,631.532 11.5,628.5C 12.552,628.351 13.552,628.517 14.5,629C 24.8368,638.832 37.1702,644.332 51.5,645.5C 66.7033,644.458 76.87,636.791 82,622.5C 82.6667,616.5 82.6667,610.5 82,604.5C 73.7447,580.112 57.578,563.278 33.5,554C 22.4734,551.154 11.9734,552.321 2,557.5C 1.09789,557.257 0.264561,556.923 -0.5,556.5 Z"/></g>
<g><path style="opacity:0.895" fill="#7f3133" d="M 258.5,540.5 C 275.272,539.684 290.939,543.351 305.5,551.5C 321.317,561.151 333.984,573.984 343.5,590C 346.119,595.349 348.452,600.849 350.5,606.5C 358.261,633.684 352.261,657.184 332.5,677C 307.668,696.266 281.501,698.1 254,682.5C 224.975,667.443 207.975,643.777 203,611.5C 202.5,611 202,610.5 201.5,610C 202.365,571.968 221.365,548.801 258.5,540.5 Z M 254.5,570.5 C 270.586,569.602 284.919,574.102 297.5,584C 305.423,590.92 312.256,598.754 318,607.5C 323.649,617.815 325.482,628.815 323.5,640.5C 316.619,659.286 303.619,666.452 284.5,662C 260.526,654.762 243.693,639.596 234,616.5C 232.251,610.233 231.251,603.9 231,597.5C 231.333,597.833 231.667,598.167 232,598.5C 231.997,592.499 233.831,587.165 237.5,582.5C 240.167,580.5 242.5,578.167 244.5,575.5C 248.061,573.842 251.394,572.175 254.5,570.5 Z"/></g>
<g><path style="opacity:0.898" fill="#7f3133" d="M 497.5,558.5 C 524.5,557.358 547.666,566.025 567,584.5C 576.42,594.221 583.92,604.888 589.5,616.5C 602.25,650.181 594.917,678.181 567.5,700.5C 542.368,713.895 517.368,713.729 492.5,700C 463.403,681.737 447.069,656.071 443.5,623C 446.701,588.666 464.701,567.166 497.5,558.5 Z M 501.5,587.5 C 534.064,592.302 555.564,610.302 566,641.5C 568.569,665.088 558.236,678.422 535,681.5C 520.633,680.106 508.133,674.606 497.5,665C 488.817,656.983 481.817,647.65 476.5,637C 468.762,617.8 472.929,602.633 489,591.5C 489.333,591.833 489.667,592.167 490,592.5C 493.875,590.622 497.709,588.955 501.5,587.5 Z"/></g>
<g><path style="opacity:0.881" fill="#7f3133" d="M 990.5,584.5 C 997.841,584.334 1005.17,584.5 1012.5,585C 1017.93,584.442 1020.93,586.775 1021.5,592C 1020.08,600.496 1018.75,608.996 1017.5,617.5C 1011.29,615.698 1004.95,614.364 998.5,613.5C 983.283,614.559 973.117,622.225 968,636.5C 967.333,642.5 967.333,648.5 968,654.5C 971.244,665.923 976.91,675.923 985,684.5C 987.491,687.835 990.658,690.168 994.5,691.5C 994.557,693.884 994.223,696.218 993.5,698.5C 989.645,705.87 986.645,713.537 984.5,721.5C 982.801,721.66 981.134,721.494 979.5,721C 963.189,709.24 951.022,694.073 943,675.5C 931.244,639.769 940.91,611.769 972,591.5C 978.236,588.918 984.402,586.584 990.5,584.5 Z"/></g>
<g><path style="opacity:0.898" fill="#7f3133" d="M 717.5,605.5 C 753.786,608.959 780.786,626.459 798.5,658C 807.273,676.871 809.44,695.705 805,714.5C 790.855,748.138 765.688,762.472 729.5,757.5C 686.361,744.228 661.695,715.228 655.5,670.5C 659.251,632.421 679.918,610.754 717.5,605.5 Z M 709.5,636.5 C 722.943,634.874 734.777,638.207 745,646.5C 745.333,646.167 745.667,645.833 746,645.5C 758.767,654.93 768.6,666.763 775.5,681C 776.568,686.583 777.901,692.083 779.5,697.5C 778.833,699.5 778.167,701.5 777.5,703.5C 777.608,704.442 777.941,705.275 778.5,706C 772.677,720.383 762.344,728.217 747.5,729.5C 719.278,724.444 699.445,708.777 688,682.5C 680.609,660.06 687.775,644.727 709.5,636.5 Z"/></g>
<g><path style="opacity:0.882" fill="#7f3133" d="M 393.5,648.5 C 431.097,685.097 468.431,722.097 505.5,759.5C 499.321,766.179 492.987,772.679 486.5,779C 484.765,779.651 483.098,779.485 481.5,778.5C 452.721,749.378 423.887,720.378 395,691.5C 390.569,699.362 386.402,707.362 382.5,715.5C 380.436,715.313 378.436,714.813 376.5,714C 371.404,709.786 365.738,706.619 359.5,704.5C 360.545,698.188 363.212,692.688 367.5,688C 367.167,687.667 366.833,687.333 366.5,687C 371.143,679.031 375.476,670.864 379.5,662.5C 384.2,657.827 388.867,653.16 393.5,648.5 Z"/></g>
<g><path style="opacity:0.9" fill="#7f3133" d="M 142.5,652.5 C 166.607,650.685 187.94,657.352 206.5,672.5C 227.889,689.967 239.889,712.633 242.5,740.5C 240.728,769.716 226.395,790.05 199.5,801.5C 185.167,804.167 170.833,804.167 156.5,801.5C 125.272,789.641 104.106,767.974 93,736.5C 85.0026,693.449 101.503,665.449 142.5,652.5 Z M 147.5,681.5 C 177.547,685.081 198.38,700.748 210,728.5C 211.015,733.784 212.182,738.951 213.5,744C 210.914,762.753 200.247,773.253 181.5,775.5C 150.618,769.95 130.284,752.283 120.5,722.5C 117.057,706.071 122.391,693.571 136.5,685C 139.789,684.118 143.123,683.452 146.5,683C 147.056,682.617 147.389,682.117 147.5,681.5 Z"/></g>
<g><path style="opacity:0.884" fill="#7f3133" d="M 604.5,696.5 C 606.433,696.729 608.1,697.562 609.5,699C 645.194,734.939 681.027,770.772 717,806.5C 717.749,807.635 717.583,808.635 716.5,809.5C 710.167,815.167 704.167,821.167 698.5,827.5C 697.167,828.833 695.833,828.833 694.5,827.5C 665.514,798.014 636.347,768.68 607,739.5C 603.057,745.772 599.557,752.272 596.5,759C 595.631,760.702 594.298,761.869 592.5,762.5C 585.355,759.684 578.688,756.017 572.5,751.5C 572.167,750.833 571.833,750.167 571.5,749.5C 578.45,736.163 585.117,723.163 591.5,710.5C 596.322,706.108 600.655,701.441 604.5,696.5 Z"/></g>
<g><path style="opacity:0.886" fill="#7f3133" d="M 876.5,696.5 C 908.694,693.978 935.194,704.978 956,729.5C 959.333,734.167 962.667,738.833 966,743.5C 969.146,748.049 969.313,752.716 966.5,757.5C 962.174,764.815 957.841,772.148 953.5,779.5C 952.272,781.321 950.606,782.321 948.5,782.5C 944.334,764.667 935.001,750.167 920.5,739C 914.919,735.501 909.252,732.167 903.5,729C 886.428,722.549 871.928,726.049 860,739.5C 854.797,750.155 854.13,761.155 858,772.5C 869.067,798.165 888.733,813.832 917,819.5C 919.49,818.664 921.99,817.998 924.5,817.5C 924.702,819.989 924.202,822.323 923,824.5C 916.932,832.171 910.765,839.671 904.5,847C 892.657,845.783 881.657,841.95 871.5,835.5C 849.126,820.611 834.459,800.111 827.5,774C 822.67,745.705 831.67,723.205 854.5,706.5C 861.828,702.688 869.162,699.355 876.5,696.5 Z"/></g>
<g><path style="opacity:0.897" fill="#7f3133" d="M 321.5,732.5 C 330.506,732.334 339.506,732.5 348.5,733C 385.81,743.41 409.976,767.244 421,804.5C 424.907,823.223 421.741,840.556 411.5,856.5C 409.489,859.01 407.322,861.343 405,863.5C 404.517,864.448 404.351,865.448 404.5,866.5C 399.761,868.72 395.428,871.72 391.5,875.5C 376.402,883.306 360.402,885.639 343.5,882.5C 306.283,871.284 282.616,846.95 272.5,809.5C 267.937,770.251 284.27,744.584 321.5,732.5 Z M 325.5,761.5 C 341.415,761.167 355.415,766 367.5,776C 374.227,782.103 380.06,788.936 385,796.5C 396.063,812.964 396.063,829.297 385,845.5C 371.893,855.622 357.727,857.122 342.5,850C 322.842,840.009 309.176,824.675 301.5,804C 296.604,782.137 304.604,767.97 325.5,761.5 Z"/></g>
<g><path style="opacity:0.79" fill="#7f3133" d="M 68.5,769.5 C 98.2477,782.081 118.081,803.748 128,834.5C 128.781,838.969 129.281,843.469 129.5,848C 129.609,850.7 129.109,853.2 128,855.5C 106.346,830.808 86.8457,804.308 69.5,776C 68.7135,773.901 68.3801,771.734 68.5,769.5 Z"/></g>
<g><path style="opacity:0.897" fill="#7f3133" d="M 538.5,779.5 C 555.546,778.398 571.379,782.065 586,790.5C 610.923,805.448 626.756,826.782 633.5,854.5C 638.258,891.271 623.425,916.271 589,929.5C 567.31,934.133 547.144,930.633 528.5,919C 510.01,906.661 496.343,890.161 487.5,869.5C 481.33,850.23 482.33,831.397 490.5,813C 498.23,799.367 509.396,789.533 524,783.5C 528.894,781.905 533.727,780.571 538.5,779.5 Z M 534.5,809.5 C 540.509,809.334 546.509,809.501 552.5,810C 577.486,817.989 594.653,834.156 604,858.5C 608.322,873.969 604.488,886.803 592.5,897C 583.655,901.275 574.321,902.608 564.5,901C 545.613,894.785 530.78,883.285 520,866.5C 516.802,860.868 514.468,854.868 513,848.5C 510.348,829.784 517.515,816.784 534.5,809.5 Z"/></g>
<g><path style="opacity:0.882" fill="#7f3133" d="M 774.5,786.5 C 775.978,786.238 777.311,786.571 778.5,787.5C 808.64,818.061 838.973,848.395 869.5,878.5C 870.485,880.098 870.651,881.765 870,883.5C 864.495,889.338 858.662,894.838 852.5,900C 850.833,900.667 849.167,900.667 847.5,900C 824.654,875.987 801.321,852.487 777.5,829.5C 773.201,836.955 768.867,844.455 764.5,852C 762.741,852.798 761.074,852.631 759.5,851.5C 754.234,847.701 748.568,844.701 742.5,842.5C 742.344,839.934 742.678,837.434 743.5,835C 749.545,824.203 755.211,813.203 760.5,802C 765.038,796.633 769.705,791.467 774.5,786.5 Z"/></g>
<g><path style="opacity:0.881" fill="#7f3133" d="M 216.5,843.5 C 246.555,843.778 271.055,855.444 290,878.5C 306.107,897.457 312.774,919.124 310,943.5C 308.064,952.375 304.731,960.708 300,968.5C 297.13,971.171 294.964,974.171 293.5,977.5C 291.278,977.822 289.444,977.155 288,975.5C 287.667,975.833 287.333,976.167 287,976.5C 281.012,972.608 274.679,969.274 268,966.5C 266.699,965.902 265.865,964.902 265.5,963.5C 282.139,951.281 286.139,935.614 277.5,916.5C 267.429,895.283 251.096,881.283 228.5,874.5C 211.477,871.217 198.81,877.05 190.5,892C 188.87,898.055 188.204,904.222 188.5,910.5C 186.738,910.643 185.071,910.309 183.5,909.5C 176.464,903.534 169.631,897.201 163,890.5C 162.672,887.793 163.005,885.126 164,882.5C 174.503,860.174 192.003,847.174 216.5,843.5 Z"/></g>
<g><path style="opacity:0.885" fill="#7f3133" d="M 710.5,869.5 C 731.799,868.851 750.799,875.017 767.5,888C 782.824,900.007 793.991,915.174 801,933.5C 801.667,935.5 801.667,937.5 801,939.5C 792.812,945.172 784.312,950.172 775.5,954.5C 767.83,927.995 750.997,909.995 725,900.5C 699.875,895.496 685.375,905.496 681.5,930.5C 683.155,935.921 684.489,941.421 685.5,947C 693.111,962.111 703.778,974.611 717.5,984.5C 716.5,985.333 715.5,986.167 714.5,987C 705.138,990.933 695.638,994.433 686,997.5C 685.167,997.333 684.333,997.167 683.5,997C 658.525,973.935 649.525,945.768 656.5,912.5C 663.187,895.307 674.853,882.64 691.5,874.5C 697.649,871.677 703.983,870.01 710.5,869.5 Z"/></g>
<g><path style="opacity:0.885" fill="#7f3133" d="M 431.5,870.5 C 434.382,870.608 436.715,871.774 438.5,874C 472.667,909.5 507.5,944.333 543,978.5C 543.667,979.833 543.667,981.167 543,982.5C 537.167,988.333 531.333,994.167 525.5,1000C 523.741,1000.8 522.074,1000.63 520.5,999.5C 492.347,970.847 464.014,942.347 435.5,914C 434.551,913.383 433.718,913.549 433,914.5C 429.008,922.286 424.508,929.619 419.5,936.5C 412.717,932.36 405.883,928.36 399,924.5C 398.333,923.5 398.333,922.5 399,921.5C 404.855,909.988 410.688,898.488 416.5,887C 421.343,881.325 426.343,875.825 431.5,870.5 Z"/></g>
<g><path style="opacity:0.88" fill="#7f3133" d="M 464.5,1023.5 C 459.167,1023.5 453.833,1023.5 448.5,1023.5C 440.845,1022.26 433.012,1021.26 425,1020.5C 421.913,1020.19 419.08,1019.19 416.5,1017.5C 402.386,1002.93 388.053,988.597 373.5,974.5C 368.413,981.796 364.08,989.13 360.5,996.5C 359.667,996.833 358.833,997.167 358,997.5C 351.241,993.781 344.574,989.781 338,985.5C 337.709,983.217 338.209,981.05 339.5,979C 345.518,967.958 351.351,956.791 357,945.5C 361.636,940.366 366.636,935.699 372,931.5C 403.492,961.463 434.325,992.13 464.5,1023.5 Z"/></g>
<g><path style="opacity:0.87" fill="#7f3133" d="M 601.5,960.5 C 602.873,960.343 604.207,960.51 605.5,961C 620.708,976.041 635.708,991.207 650.5,1006.5C 650.081,1007.67 649.415,1008.67 648.5,1009.5C 638.54,1013.19 628.206,1015.02 617.5,1015C 613.335,1010.54 608.835,1006.37 604,1002.5C 600.933,1008.9 597.433,1015.07 593.5,1021C 589.823,1021.72 586.157,1022.05 582.5,1022C 577.19,1019.64 572.524,1016.47 568.5,1012.5C 569.842,1010.49 570.842,1008.32 571.5,1006C 577.802,995.54 583.469,984.706 588.5,973.5C 593.068,969.327 597.401,964.994 601.5,960.5 Z"/></g>
</svg>
