<svg xmlns="http://www.w3.org/2000/svg" width="232.463" height="26.521" viewBox="0 0 232.463 26.521">
  <g id="Group_3" data-name="Group 3" transform="translate(-25.501 -25.007)">
    <g id="Group_1" data-name="Group 1">
      <path id="Path_1" data-name="Path 1" d="M25.5,26.472h6.933a4.979,4.979,0,0,1,3.688,1.217,2.963,2.963,0,0,1,.869,2.182v.039a3.13,3.13,0,0,1-2.085,3.012c1.64.541,2.684,1.468,2.684,3.3v.039c0,2.316-1.893,3.725-5.118,3.725H25.5Zm6.005,5.389c1.142,0,1.777-.388,1.777-1.178v-.039c0-.734-.579-1.16-1.7-1.16H29.151v2.377Zm.54,5.117c1.142,0,1.8-.445,1.8-1.236V35.7c0-.735-.581-1.217-1.835-1.217H29.151v2.492Z" fill="#636366"/>
      <path id="Path_2" data-name="Path 2" d="M38.342,26.472H49.213v3.186H42.049v2.048h6.488V34.66H42.049V36.8H49.31v3.184H38.342Z" fill="#636366"/>
      <path id="Path_3" data-name="Path 3" d="M200.4,43.914h7.214v7.1H200.4Z" fill="#636366"/>
    </g>
    <g id="Group_2" data-name="Group 2">
      <path id="Path_4" data-name="Path 4" d="M55.7,25.518H76.1v6.193H62.766v4.334H74.824v5.866H62.766v9.108H55.7Z" fill="#6d2126"/>
      <path id="Path_5" data-name="Path 5" d="M87.212,25.336h6.812L104.88,51.019H97.3l-1.857-4.555H85.608l-1.821,4.555H76.356ZM93.4,40.965l-2.841-7.25-2.878,7.25Z" fill="#6d2126"/>
      <path id="Path_6" data-name="Path 6" d="M104.517,47.229l3.934-4.7a13.14,13.14,0,0,0,8.27,3.06c1.895,0,2.915-.655,2.915-1.748V43.77c0-1.057-.838-1.639-4.3-2.442-5.428-1.238-9.617-2.768-9.617-8.014V33.24c0-4.734,3.753-8.159,9.873-8.159a16.035,16.035,0,0,1,10.49,3.389l-3.532,4.99a12.789,12.789,0,0,0-7.14-2.515c-1.712,0-2.55.729-2.55,1.641v.073c0,1.165.874,1.677,4.408,2.477,5.865,1.274,9.508,3.169,9.508,7.941v.073c0,5.209-4.117,8.305-10.31,8.305A17.811,17.811,0,0,1,104.517,47.229Z" fill="#6d2126"/>
      <path id="Path_7" data-name="Path 7" d="M135.52,31.711h-7.651V25.518h22.368v6.193h-7.65V51.019H135.52Z" fill="#6d2126"/>
      <path id="Path_8" data-name="Path 8" d="M152.425,25.518h20.508v6.011H159.419V35.39h12.24v5.575h-12.24v4.042h13.7v6.012H152.425Z" fill="#6d2126"/>
      <path id="Path_9" data-name="Path 9" d="M175.813,25.518h12.058c3.9,0,6.593,1.02,8.306,2.77a7.9,7.9,0,0,1,2.259,5.936V34.3a8.066,8.066,0,0,1-5.246,7.833l6.084,8.888h-8.162L185.977,43.3h-3.1v7.722h-7.067Zm11.73,12.241c2.4,0,3.789-1.166,3.789-3.025v-.072c0-2-1.458-3.023-3.825-3.023H182.88v6.12Z" fill="#6d2126"/>
      <path id="Path_10" data-name="Path 10" d="M209.657,38.34v-.071A13.1,13.1,0,0,1,223.1,25.007a12.484,12.484,0,0,1,10.819,5.319L228.6,34.442a6.831,6.831,0,0,0-5.574-2.986c-3.57,0-6.084,3.023-6.084,6.739v.074c0,3.825,2.514,6.811,6.084,6.811,2.659,0,4.226-1.237,5.757-3.1l5.317,3.788a13.425,13.425,0,0,1-24.444-7.432Z" fill="#6d2126"/>
      <path id="Path_11" data-name="Path 11" d="M235.415,45.882,248.2,31.492H235.852V25.518h22.112v5.137L245.178,45.044h12.786v5.975H235.415Z" fill="#6d2126"/>
    </g>
  </g>
</svg>
